# xmcd CD database file
#
# Track frame offsets:
#	150
#	47737
#	102012
#	169287
#	193657
#	213487
#	236812
#	267537
#	294847
#
# Disc length: 4318 seconds
#
# Revision: 5
# Processed by: cddbd v1.5.2PL0 Copyright (c) Steve Scherf et al.
# Submitted via: CDex 1.51
#
DISCID=8510dc09
DTITLE=Charles Mingus - Vol. 056 - Pithecanthropus Erectus
DYEAR=1955
DGENRE=Jazz
TTITLE0=Pithecanthropus Erectus
TTITLE1=Haitian Fight Song
TTITLE2=Love Chant
TTITLE3=A Foggy Day
TTITLE4=Memories Of You
TTITLE5=East Coasting (East Coast Ghost)
TTITLE6=Jump, Monk
TTITLE7=Serenade In Blue
TTITLE8=Work Song
EXTD=YEAR: 1955
EXTT0=
EXTT1=
EXTT2=
EXTT3=
EXTT4=
EXTT5=
EXTT6=
EXTT7=
EXTT8=
PLAYORDER=
